#!OML:ASF H:\Terrain\Patient Classification 1\Walking\liu\liu.ASF
:FULLY-SPECIFIED
:DEGREES
146
root 9.487544 17.536310 -17.974550 6.967257 9.237427 4.151708
lowerback -7.372618 -3.663055 -4.928759
upperback -1.315457 -4.597582 2.386593
thorax 3.298064 -2.352680 4.802688
lowerneck -21.064560 -6.428213 -15.274050
upperneck 19.185541 -7.600164 14.240490
head 10.598016 -3.071904 6.465096
rclavicle 0.000000 0.000000
rhumerus -53.109097 4.452074 -89.740089
rradius 31.917931
rwrist -17.027781
rhand -31.551521 -24.940960
rfingers 7.837522
rthumb -2.250270 -57.907852
lclavicle 0.000000 0.000000
lhumerus -38.989059 -1.165758 99.942703
lradius 20.776360
lwrist -12.394030
lhand -11.783421 -24.814680
lfingers 7.837522
lthumb 16.827579 7.540995
rfemur -45.247513 2.295777 17.008200
rtibia 43.399837
rfoot -7.050549 -3.954907
rtoes -18.138340
lfemur 30.580551 5.841671 -20.333281
ltibia 0.000000
lfoot 7.441632 -1.314236
ltoes -18.865881
147
root 9.465918 17.575911 -17.798550 7.038394 9.587084 3.851606
lowerback -7.109641 -3.735215 -4.507459
upperback -1.482657 -4.735467 2.456278
thorax 2.967811 -2.407218 4.643980
lowerneck -21.245951 -6.451786 -15.141720
upperneck 19.366930 -7.635705 14.112780
head 10.689349 -3.086633 6.394256
rclavicle -0.000000 0.000000
rhumerus -53.088528 4.568817 -89.741966
rradius 31.536230
rwrist -15.970901
rhand -30.681200 -24.863739
rfingers 7.837522
rthumb -1.409749 -57.837231
lclavicle -0.000000 0.000000
lhumerus -39.635750 0.449679 99.135956
lradius 19.904720
lwrist -12.162260
lhand -11.601480 -25.007952
lfingers 7.837522
lthumb 17.002699 7.334261
rfemur -44.641083 1.935329 17.633440
rtibia 43.580566
rfoot -7.639137 -3.543375
rtoes -18.525539
lfemur 30.719591 5.860118 -19.750500
ltibia 0.000000
lfoot 9.621182 -0.568261
ltoes -18.429949
148
root 9.436878 17.615509 -17.628819 7.044961 9.910989 3.155724
lowerback -6.944586 -3.694306 -3.786695
upperback -1.484076 -4.739471 2.653233
thorax 2.837505 -2.401718 4.453119
lowerneck -21.482670 -6.548476 -15.162400
upperneck 19.155949 -7.740304 14.227180
head 10.680890 -3.116047 6.416146
rclavicle -0.000000 -0.000000
rhumerus -53.019562 4.550854 -89.552544
rradius 31.462751
rwrist -15.144140
rhand -30.348560 -25.200779
rfingers 7.837522
rthumb -1.088464 -58.176029
lclavicle -0.000000 -0.000000
lhumerus -39.963661 1.359545 98.588600
lradius 19.233829
lwrist -12.009580
lhand -11.365200 -24.832500
lfingers 7.837522
lthumb 17.230289 7.491990
rfemur -44.007370 1.769779 18.659740
rtibia 43.618851
rfoot -8.045730 -3.244857
rtoes -18.376930
lfemur 28.426199 6.122886 -18.615080
ltibia 4.647500
lfoot 10.014004 -0.171868
ltoes -16.572269
149
root 9.403988 17.659950 -17.460739 7.147415 10.032495 2.585495
lowerback -7.043487 -3.624478 -3.231074
upperback -1.372723 -4.685175 2.791613
thorax 2.973157 -2.374713 4.281233
lowerneck -21.966890 -6.653691 -15.104760
upperneck 18.851252 -7.844298 14.368860
head 10.683102 -3.128356 6.430754
rclavicle 0.000000 -0.000000
rhumerus -52.519390 3.993693 -88.896942
rradius 31.455160
rwrist -13.826560
rhand -29.091921 -24.119591
rfingers 7.837522
rthumb 0.125257 -57.097260
lclavicle 0.000000 -0.000000
lhumerus -40.304989 2.375725 97.829933
lradius 19.106449
lwrist -12.793550
lhand -8.623582 -22.924330
lfingers 7.837522
lthumb 19.869411 9.174979
rfemur -43.387741 1.804187 19.498930
rtibia 43.456268
rfoot -8.402405 -2.975445
rtoes -17.067160
lfemur 23.904760 6.778816 -17.570080
ltibia 13.501400
lfoot 8.649542 -0.446939
ltoes -16.004890
150
root 9.369085 17.711100 -17.299040 7.396455 10.181853 2.179903
lowerback -7.059987 -3.679698 -2.916683
upperback -1.439394 -4.782052 2.904693
thorax 2.907905 -2.418713 4.213924
lowerneck -22.138161 -6.617325 -15.026110
upperneck 18.734320 -7.817326 14.515929
head 10.673091 -3.089185 6.472059
rclavicle 0.000000 -0.000000
rhumerus -52.084232 4.175765 -88.978783
rradius 31.309631
rwrist -14.100460
rhand -29.084330 -19.424572
rfingers 7.837522
rthumb 0.132490 -52.402241
lclavicle 0.000000 -0.000000
lhumerus -40.826939 3.691787 96.894600
lradius 18.812639
lwrist -14.034460
lhand -4.930035 -20.808479
lfingers 7.837522
lthumb 23.420321 10.927048
rfemur -42.814861 1.666720 20.217890
rtibia 43.116814
rfoot -9.022969 -2.689555
rtoes -16.177481
lfemur 20.812441 7.208014 -16.875099
ltibia 19.245380
lfoot 8.364378 -0.180815
ltoes -14.797530
